<svg width="20" height="20" viewBox="0 0 20 20" fill="none" xmlns="http://www.w3.org/2000/svg">
<path d="M15.9499 10.7833C15.9833 10.5333 15.9999 10.275 15.9999 10C15.9999 9.73333 15.9833 9.46667 15.9416 9.21667L17.6333 7.9C17.7833 7.78333 17.8249 7.55833 17.7333 7.39167L16.1333 4.625C16.0333 4.44167 15.8249 4.38333 15.6416 4.44167L13.6499 5.24167C13.2333 4.925 12.7916 4.65833 12.2999 4.45833L11.9999 2.34167C11.9666 2.14167 11.7999 2 11.5999 2H8.39993C8.19993 2 8.0416 2.14167 8.00826 2.34167L7.70826 4.45833C7.2166 4.65833 6.7666 4.93333 6.35826 5.24167L4.3666 4.44167C4.18326 4.375 3.97493 4.44167 3.87493 4.625L2.28326 7.39167C2.18326 7.56667 2.2166 7.78333 2.38326 7.9L4.07493 9.21667C4.03326 9.46667 3.99993 9.74167 3.99993 10C3.99993 10.2583 4.0166 10.5333 4.05826 10.7833L2.3666 12.1C2.2166 12.2167 2.17493 12.4417 2.2666 12.6083L3.8666 15.375C3.9666 15.5583 4.17493 15.6167 4.35826 15.5583L6.34993 14.7583C6.7666 15.075 7.20826 15.3417 7.69993 15.5417L7.99993 17.6583C8.0416 17.8583 8.19993 18 8.39993 18H11.5999C11.7999 18 11.9666 17.8583 11.9916 17.6583L12.2916 15.5417C12.7833 15.3417 13.2333 15.075 13.6416 14.7583L15.6333 15.5583C15.8166 15.625 16.0249 15.5583 16.1249 15.375L17.7249 12.6083C17.8249 12.425 17.7833 12.2167 17.6249 12.1L15.9499 10.7833ZM9.99993 13C8.34993 13 6.99993 11.65 6.99993 10C6.99993 8.35 8.34993 7 9.99993 7C11.6499 7 12.9999 8.35 12.9999 10C12.9999 11.65 11.6499 13 9.99993 13Z" fill="#9CA3AF"/>
</svg>
