<svg width="40" height="40" viewBox="0 0 40 40" fill="none" xmlns="http://www.w3.org/2000/svg">
<path d="M19.9998 10.4C18.0903 10.4 16.2589 11.1586 14.9087 12.5088C13.5584 13.8591 12.7998 15.6904 12.7998 17.6V21.9032L11.9514 22.7516C11.7837 22.9194 11.6694 23.1332 11.6231 23.366C11.5769 23.5987 11.6006 23.8399 11.6914 24.0592C11.7822 24.2784 11.936 24.4658 12.1333 24.5977C12.3306 24.7295 12.5625 24.7999 12.7998 24.8H27.1998C27.4371 24.7999 27.6691 24.7295 27.8664 24.5977C28.0637 24.4658 28.2175 24.2784 28.3083 24.0592C28.3991 23.8399 28.4228 23.5987 28.3765 23.366C28.3303 23.1332 28.216 22.9194 28.0482 22.7516L27.1998 21.9032V17.6C27.1998 15.6904 26.4413 13.8591 25.091 12.5088C23.7407 11.1586 21.9094 10.4 19.9998 10.4ZM19.9998 29.6C19.0451 29.6 18.1294 29.2207 17.4543 28.5456C16.7791 27.8705 16.3998 26.9548 16.3998 26H23.5998C23.5998 26.9548 23.2206 27.8705 22.5454 28.5456C21.8703 29.2207 20.9546 29.6 19.9998 29.6Z" fill="#6B7280"/>
</svg>
