<svg width="40" height="40" viewBox="0 0 40 40" fill="none" xmlns="http://www.w3.org/2000/svg">
<path d="M18.8002 15.2C18.8002 16.1548 18.4209 17.0705 17.7458 17.7456C17.0706 18.4207 16.155 18.8 15.2002 18.8C14.2454 18.8 13.3297 18.4207 12.6546 17.7456C11.9795 17.0705 11.6002 16.1548 11.6002 15.2C11.6002 14.2452 11.9795 13.3295 12.6546 12.6544C13.3297 11.9793 14.2454 11.6 15.2002 11.6C16.155 11.6 17.0706 11.9793 17.7458 12.6544C18.4209 13.3295 18.8002 14.2452 18.8002 15.2ZM28.4002 15.2C28.4002 15.6728 28.3071 16.1409 28.1262 16.5777C27.9452 17.0144 27.6801 17.4113 27.3458 17.7456C27.0115 18.0799 26.6146 18.3451 26.1779 18.526C25.7411 18.7069 25.273 18.8 24.8002 18.8C24.3274 18.8 23.8593 18.7069 23.4225 18.526C22.9858 18.3451 22.5889 18.0799 22.2546 17.7456C21.9203 17.4113 21.6551 17.0144 21.4742 16.5777C21.2933 16.1409 21.2002 15.6728 21.2002 15.2C21.2002 14.2452 21.5795 13.3295 22.2546 12.6544C22.9297 11.9793 23.8454 11.6 24.8002 11.6C25.755 11.6 26.6706 11.9793 27.3458 12.6544C28.0209 13.3295 28.4002 14.2452 28.4002 15.2ZM23.5162 28.4C23.5714 28.0076 23.6002 27.608 23.6002 27.2C23.603 25.3146 22.9687 23.4836 21.8002 22.004C22.7123 21.4774 23.7469 21.2002 24.8002 21.2002C25.8534 21.2001 26.888 21.4774 27.8001 22.004C28.7122 22.5306 29.4697 23.288 29.9963 24.2001C30.5229 25.1121 30.8002 26.1468 30.8002 27.2V28.4H23.5162ZM15.2002 21.2C16.7915 21.2 18.3176 21.8321 19.4428 22.9574C20.5681 24.0826 21.2002 25.6087 21.2002 27.2V28.4H9.2002V27.2C9.2002 25.6087 9.83234 24.0826 10.9576 22.9574C12.0828 21.8321 13.6089 21.2 15.2002 21.2Z" fill="#6B7280"/>
</svg>
