<svg width="14" height="16" viewBox="0 0 14 16" fill="none" xmlns="http://www.w3.org/2000/svg">
<path fill-rule="evenodd" clip-rule="evenodd" d="M0 15C0 14.7348 0.105357 14.4804 0.292893 14.2929C0.48043 14.1054 0.734784 14 1 14H13C13.2652 14 13.5196 14.1054 13.7071 14.2929C13.8946 14.4804 14 14.7348 14 15C14 15.2652 13.8946 15.5196 13.7071 15.7071C13.5196 15.8946 13.2652 16 13 16H1C0.734784 16 0.48043 15.8946 0.292893 15.7071C0.105357 15.5196 0 15.2652 0 15ZM3.293 4.707C3.10553 4.51947 3.00021 4.26516 3.00021 4C3.00021 3.73484 3.10553 3.48053 3.293 3.293L6.293 0.293C6.48053 0.105529 6.73484 0.000213623 7 0.000213623C7.26516 0.000213623 7.51947 0.105529 7.707 0.293L10.707 3.293C10.8892 3.4816 10.99 3.7342 10.9877 3.9964C10.9854 4.2586 10.8802 4.50941 10.6948 4.69482C10.5094 4.88023 10.2586 4.9854 9.9964 4.98767C9.7342 4.98995 9.4816 4.88916 9.293 4.707L8 3.414V11C8 11.2652 7.89464 11.5196 7.70711 11.7071C7.51957 11.8946 7.26522 12 7 12C6.73478 12 6.48043 11.8946 6.29289 11.7071C6.10536 11.5196 6 11.2652 6 11V3.414L4.707 4.707C4.51947 4.89447 4.26516 4.99979 4 4.99979C3.73484 4.99979 3.48053 4.89447 3.293 4.707V4.707Z" fill="#5048E5"/>
</svg>
